<svg width="26" height="26" viewBox="0 0 26 26" fill="none" xmlns="http://www.w3.org/2000/svg">
<path d="M15 19.5H19.5M19.5 19.5H24M19.5 19.5V15M19.5 19.5V24M5 11H8C8.79565 11 9.55871 10.6839 10.1213 10.1213C10.6839 9.55871 11 8.79565 11 8V5C11 4.20435 10.6839 3.44129 10.1213 2.87868C9.55871 2.31607 8.79565 2 8 2H5C4.20435 2 3.44129 2.31607 2.87868 2.87868C2.31607 3.44129 2 4.20435 2 5V8C2 8.79565 2.31607 9.55871 2.87868 10.1213C3.44129 10.6839 4.20435 11 5 11ZM5 24H8C8.79565 24 9.55871 23.6839 10.1213 23.1213C10.6839 22.5587 11 21.7957 11 21V18C11 17.2044 10.6839 16.4413 10.1213 15.8787C9.55871 15.3161 8.79565 15 8 15H5C4.20435 15 3.44129 15.3161 2.87868 15.8787C2.31607 16.4413 2 17.2044 2 18V21C2 21.7957 2.31607 22.5587 2.87868 23.1213C3.44129 23.6839 4.20435 24 5 24ZM18 11H21C21.7957 11 22.5587 10.6839 23.1213 10.1213C23.6839 9.55871 24 8.79565 24 8V5C24 4.20435 23.6839 3.44129 23.1213 2.87868C22.5587 2.31607 21.7957 2 21 2H18C17.2044 2 16.4413 2.31607 15.8787 2.87868C15.3161 3.44129 15 4.20435 15 5V8C15 8.79565 15.3161 9.55871 15.8787 10.1213C16.4413 10.6839 17.2044 11 18 11Z" stroke="#A8ABB7" stroke-width="3" stroke-linecap="round" stroke-linejoin="round"/>
</svg>
