<svg width="28" height="26" viewBox="0 0 28 26" fill="none" xmlns="http://www.w3.org/2000/svg">
<path d="M14 7H16M14 11H16M6 15H16M6 19H16M20 7H24.5C25.328 7 26 7.672 26 8.5V21C26 21.7957 25.6839 22.5587 25.1213 23.1213C24.5587 23.6839 23.7957 24 23 24M20 7V21C20 21.7957 20.3161 22.5587 20.8787 23.1213C21.4413 23.6839 22.2044 24 23 24M20 7V3.5C20 2.672 19.328 2 18.5 2H3.5C2.672 2 2 2.672 2 3.5V21C2 21.7957 2.31607 22.5587 2.87868 23.1213C3.44129 23.6839 4.20435 24 5 24H23M6 7H10V11H6V7Z" stroke="#A8ABB7" stroke-width="3" stroke-linecap="round" stroke-linejoin="round"/>
</svg>
