<svg width="28" height="28" viewBox="0 0 28 28" fill="none" xmlns="http://www.w3.org/2000/svg">
<path d="M21.976 22.9668C21.0443 21.7333 19.839 20.7329 18.4549 20.0446C17.0708 19.3562 15.5458 18.9987 14 19.0001C12.4542 18.9987 10.9292 19.3562 9.54509 20.0446C8.161 20.7329 6.95565 21.7333 6.024 22.9668M21.976 22.9668C23.794 21.3497 25.0762 19.2182 25.6549 16.8549C26.2337 14.4916 26.0803 12.0082 25.2153 9.73407C24.3502 7.45992 22.8143 5.50246 20.8112 4.12129C18.8081 2.74012 16.4325 2.00049 13.9993 2.00049C11.5662 2.00049 9.19057 2.74012 7.18747 4.12129C5.18436 5.50246 3.64844 7.45992 2.78338 9.73407C1.91832 12.0082 1.765 14.4916 2.34376 16.8549C2.92251 19.2182 4.206 21.3497 6.024 22.9668M21.976 22.9668C19.7814 24.9243 16.9408 26.0043 14 26.0001C11.0587 26.0046 8.21898 24.9246 6.024 22.9668M18 11.0001C18 12.061 17.5786 13.0784 16.8284 13.8285C16.0783 14.5787 15.0609 15.0001 14 15.0001C12.9391 15.0001 11.9217 14.5787 11.1716 13.8285C10.4214 13.0784 10 12.061 10 11.0001C10 9.93923 10.4214 8.92181 11.1716 8.17167C11.9217 7.42152 12.9391 7.00009 14 7.00009C15.0609 7.00009 16.0783 7.42152 16.8284 8.17167C17.5786 8.92181 18 9.93923 18 11.0001Z" stroke="#A8ABB7" stroke-width="3" stroke-linecap="round" stroke-linejoin="round"/>
</svg>
